HIERARCHY
ROOT Hips
{
  OFFSET 5.72205e-005 65.662 3.42586
  CHANNELS 6 Xposition Yposition Zposition Zrotation Xrotation Yrotation
  JOINT Chest
  {
    OFFSET 0 8.7983 -4.7612
    CHANNELS 3 Zrotation Xrotation Yrotation
    JOINT Chest2
    {
      OFFSET 0 8.0291 0.4195
      CHANNELS 3 Zrotation Xrotation Yrotation
      JOINT Chest3
      {
        OFFSET 0 9.9351 -2.2114
        CHANNELS 3 Zrotation Xrotation Yrotation
        JOINT Neck
        {
          OFFSET 0 22.3885 -0.4656
          CHANNELS 3 Zrotation Xrotation Yrotation
          JOINT Head
          {
            OFFSET -0.0001 12.643 3.4389
            CHANNELS 3 Zrotation Xrotation Yrotation
            End Site
            {
              OFFSET 0.0001 17.6655 0.5274
            }
          }
        }
        JOINT LeftCollar
        {
          OFFSET 2.2603 21.606 7.4023
          CHANNELS 3 Zrotation Xrotation Yrotation
          JOINT LeftShoulder
          {
            OFFSET 13.5163 -1.1332 -5.0146
            CHANNELS 3 Zrotation Xrotation Yrotation
            JOINT LeftElbow
            {
              OFFSET -0.0995 -28.05 -0.2431
              CHANNELS 3 Zrotation Xrotation Yrotation
              JOINT LeftWrist
              {
                OFFSET 0.0679 -23.3996 -0.1402
                CHANNELS 3 Zrotation Xrotation Yrotation
                JOINT LeftFinger1
                {
                  OFFSET 0.7932 -9.069 2.5189
                  CHANNELS 3 Zrotation Xrotation Yrotation
                  JOINT LeftFinger11
                  {
                    OFFSET -0.8272 -3.3923 0.5977
                    CHANNELS 3 Zrotation Xrotation Yrotation
                    JOINT LeftFinger12
                    {
                      OFFSET -0.5649 -2.3158 0.4082
                      CHANNELS 3 Zrotation Xrotation Yrotation
                      End Site
                      {
                        OFFSET -0.4919 -1.6479 0.2673
                      }
                    }
                  }
                }
                JOINT LeftFinger2
                {
                  OFFSET 0.9159 -9.2044 0.2193
                  CHANNELS 3 Zrotation Xrotation Yrotation
                  JOINT LeftFinger21
                  {
                    OFFSET 0.0117 -4.1944 -0.0248
                    CHANNELS 3 Zrotation Xrotation Yrotation
                    JOINT LeftFinger22
                    {
                      OFFSET 0.0071 -2.3249 -0.0142
                      CHANNELS 3 Zrotation Xrotation Yrotation
                      End Site
                      {
                        OFFSET -0.1475 -2.0882 0.0028
                      }
                    }
                  }
                }
                JOINT LeftFinger3
                {
                  OFFSET 0.6113 -8.7231 -2.0637
                  CHANNELS 3 Zrotation Xrotation Yrotation
                  JOINT LeftFinger31
                  {
                    OFFSET -0.1927 -3.8059 -0.2383
                    CHANNELS 3 Zrotation Xrotation Yrotation
                    JOINT LeftFinger32
                    {
                      OFFSET -0.1091 -2.1688 -0.1362
                      CHANNELS 3 Zrotation Xrotation Yrotation
                      End Site
                      {
                        OFFSET -0.2358 -1.9176 -0.0906
                      }
                    }
                  }
                }
                JOINT LeftFinger4
                {
                  OFFSET -0.6151 -8.0947 -3.5641
                  CHANNELS 3 Zrotation Xrotation Yrotation
                  JOINT LeftFinger41
                  {
                    OFFSET -0.4882 -2.341 -0.6462
                    CHANNELS 3 Zrotation Xrotation Yrotation
                    JOINT LeftFinger42
                    {
                      OFFSET -0.3575 -1.7167 -0.4742
                      CHANNELS 3 Zrotation Xrotation Yrotation
                      End Site
                      {
                        OFFSET -0.4187 -1.5237 -0.3496
                      }
                    }
                  }
                }
                JOINT LeftFinger0
                {
                  OFFSET -1.42 -1.8761 1.4223
                  CHANNELS 3 Zrotation Xrotation Yrotation
                  JOINT LeftFinger01
                  {
                    OFFSET -1.1471 -3.4929 2.6334
                    CHANNELS 3 Zrotation Xrotation Yrotation
                    JOINT LeftFinger02
                    {
                      OFFSET -0.823 -2.3 1.6571
                      CHANNELS 3 Zrotation Xrotation Yrotation
                      End Site
                      {
                        OFFSET -0.5822 -1.6914 1.1582
                      }
                    }
                  }
                }
              }
            }
          }
        }
        JOINT RightCollar
        {
          OFFSET -2.2603 21.606 7.4023
          CHANNELS 3 Zrotation Xrotation Yrotation
          JOINT RightShoulder
          {
            OFFSET -13.5187 -1.1334 -5.0155
            CHANNELS 3 Zrotation Xrotation Yrotation
            JOINT RightElbow
            {
              OFFSET 0.0994 -28.0499 -0.2431
              CHANNELS 3 Zrotation Xrotation Yrotation
              JOINT RightWrist
              {
                OFFSET -0.0679 -23.3996 -0.1402
                CHANNELS 3 Zrotation Xrotation Yrotation
                JOINT RightFinger1
                {
                  OFFSET -0.7932 -9.0691 2.5189
                  CHANNELS 3 Zrotation Xrotation Yrotation
                  JOINT RightFinger11
                  {
                    OFFSET 0.8272 -3.3923 0.5977
                    CHANNELS 3 Zrotation Xrotation Yrotation
                    JOINT RightFinger12
                    {
                      OFFSET 0.565 -2.3158 0.4082
                      CHANNELS 3 Zrotation Xrotation Yrotation
                      End Site
                      {
                        OFFSET 0.4919 -1.6479 0.2673
                      }
                    }
                  }
                }
                JOINT RightFinger2
                {
                  OFFSET -0.916 -9.2044 0.2193
                  CHANNELS 3 Zrotation Xrotation Yrotation
                  JOINT RightFinger21
                  {
                    OFFSET -0.0117 -4.1944 -0.0248
                    CHANNELS 3 Zrotation Xrotation Yrotation
                    JOINT RightFinger22
                    {
                      OFFSET -0.0071 -2.3249 -0.0142
                      CHANNELS 3 Zrotation Xrotation Yrotation
                      End Site
                      {
                        OFFSET 0.1475 -2.0882 0.0028
                      }
                    }
                  }
                }
                JOINT RightFinger3
                {
                  OFFSET -0.6113 -8.7231 -2.0637
                  CHANNELS 3 Zrotation Xrotation Yrotation
                  JOINT RightFinger31
                  {
                    OFFSET 0.1927 -3.8059 -0.2383
                    CHANNELS 3 Zrotation Xrotation Yrotation
                    JOINT RightFinger32
                    {
                      OFFSET 0.1091 -2.1688 -0.1362
                      CHANNELS 3 Zrotation Xrotation Yrotation
                      End Site
                      {
                        OFFSET 0.2358 -1.9176 -0.0906
                      }
                    }
                  }
                }
                JOINT RightFinger4
                {
                  OFFSET 0.6151 -8.0947 -3.564
                  CHANNELS 3 Zrotation Xrotation Yrotation
                  JOINT RightFinger41
                  {
                    OFFSET 0.4882 -2.341 -0.6462
                    CHANNELS 3 Zrotation Xrotation Yrotation
                    JOINT RightFinger42
                    {
                      OFFSET 0.3574 -1.7166 -0.4742
                      CHANNELS 3 Zrotation Xrotation Yrotation
                      End Site
                      {
                        OFFSET 0.4187 -1.5237 -0.3496
                      }
                    }
                  }
                }
                JOINT RightFinger0
                {
                  OFFSET 1.4199 -1.8761 1.4221
                  CHANNELS 3 Zrotation Xrotation Yrotation
                  JOINT RightFinger01
                  {
                    OFFSET 1.1472 -3.4929 2.6336
                    CHANNELS 3 Zrotation Xrotation Yrotation
                    JOINT RightFinger02
                    {
                      OFFSET 0.8229 -2.3 1.6571
                      CHANNELS 3 Zrotation Xrotation Yrotation
                      End Site
                      {
                        OFFSET 0.5822 -1.6914 1.1582
                      }
                    }
                  }
                }
              }
            }
          }
        }
      }
    }
  }
  JOINT RightHip
  {
    OFFSET -9.412 3.9771 -0.7758
    CHANNELS 3 Zrotation Xrotation Yrotation
    JOINT RightKnee
    {
      OFFSET -0.7531 -40.938 0
      CHANNELS 3 Zrotation Xrotation Yrotation
      JOINT RightAnkle
      {
        OFFSET 0 -40.1986 0
        CHANNELS 3 Zrotation Xrotation Yrotation
        JOINT RightToe
        {
          OFFSET 0 -4.4182 9.239
          CHANNELS 3 Zrotation Xrotation Yrotation
          End Site
          {
            OFFSET 0 0 6.1981
          }
        }
      }
    }
  }
  JOINT LeftHip
  {
    OFFSET 9.4119 3.9773 -0.7758
    CHANNELS 3 Zrotation Xrotation Yrotation
    JOINT LeftKnee
    {
      OFFSET 0.7532 -40.9383 0
      CHANNELS 3 Zrotation Xrotation Yrotation
      JOINT LeftAnkle
      {
        OFFSET 0 -40.1986 0
        CHANNELS 3 Zrotation Xrotation Yrotation
        JOINT LeftToe
        {
          OFFSET 0 -4.4182 9.239
          CHANNELS 3 Zrotation Xrotation Yrotation
          End Site
          {
            OFFSET 0 0 6.1981
          }
        }
      }
    }
  }
}
MOTION
Frames:	4
Frame Time:	0.0333333
5.72205e-005 65.662 3.42586 0 0 -0 0 0 -0 0 0 -0 0 0 -0 0 0 -0 0 0 -0 0 0 -12.5014 88.1196 14.2451 10.6914 -0.00160068 -0.00239207 0.000740045 -8.4365e-005 7.00714e-005 -9.52055e-007 9.93923e-017 -1.98785e-016 -1.59028e-015 9.93923e-017 -5.96354e-016 -1.59028e-015 -9.93923e-017 -5.96354e-016 -1.59028e-015 9.93923e-017 -1.98785e-016 -1.59028e-015 -0.0128176 0.00232552 8.52707e-005 9.93923e-017 5.96354e-016 -0 9.93923e-017 -1.98785e-016 -1.59028e-015 -0.0160551 0.00299681 0.000857156 -2.48481e-016 0 3.18055e-015 9.93923e-017 -1.98785e-016 -1.59028e-015 -0.0125865 0.0031206 0.00282719 0 1.98785e-016 -0 9.93923e-017 -1.98785e-016 -1.59028e-015 9.93923e-017 -5.96354e-016 -1.59028e-015 -9.93923e-017 -5.96354e-016 -1.59028e-015 -0.865644 0.16582 7.03859 -88.0329 10.2057 -10.5567 0.0015593 -0.00248883 -0.000788628 7.87605e-005 4.10553e-005 1.24965e-005 -3.97569e-016 -7.95139e-016 3.18055e-015 -1.98785e-016 -3.97569e-016 3.18055e-015 -1.98785e-016 0 3.18055e-015 -3.97569e-016 -7.95139e-016 3.18055e-015 0.0129473 0.00231697 -8.70038e-005 9.93923e-017 -7.95139e-016 1.59028e-015 -3.97569e-016 -7.95139e-016 3.18055e-015 0.0163314 0.00303369 -0.000872333 3.97569e-016 7.95139e-016 -3.18055e-015 -3.97569e-016 -7.95139e-016 3.18055e-015 0.0145763 0.00367772 -0.00326275 9.93923e-017 -3.97569e-016 -0 -3.97569e-016 -7.95139e-016 3.18055e-015 -1.98785e-016 -3.97569e-016 3.18055e-015 -1.98785e-016 0 3.18055e-015 3.42482 1.32465 -0.0626183 0.000117508 0.717283 0.000978199 -3.4257 -2.04197 -0.0604716 6.47761e-025 0 -0 -3.42483 1.34017 0.0627307 -0.000193936 0.682302 -0.0013703 3.42574 -2.02253 0.0595886 -8.45714e-024 0 -7.40531e-025 
-0.00449139 21.7843 9.94145 -1.07478e-007 -59.8095 -1.8286e-007 -0.128338 1.10702 -0.253428 -0.251847 2.21456 -0.504515 -0.251847 2.21456 -0.504515 1.38416e-005 4.08068 3.13794e-005 -4.44152e-008 14.1872 -6.87402e-008 -1.53668 -4.64232 -17.8932 90.4895 -19.7495 25.2009 -24.0718 -33.185 12.0204 -30.9596 -12.7032 7.71667 6.26506e-007 5.12878e-006 2.26213e-006 -6.26506e-007 -5.12878e-006 -2.26213e-006 6.26506e-007 5.12878e-006 2.26213e-006 6.26506e-007 5.12878e-006 2.26213e-006 -0.0128683 0.00231379 7.89056e-005 -1.09618e-006 5.82702e-006 4.12281e-006 6.26506e-007 5.12878e-006 2.26213e-006 -0.0160734 0.00299935 0.000853149 -2.26455e-006 -7.86685e-006 -2.95977e-006 6.26506e-007 5.12878e-006 2.26213e-006 -0.0126125 0.00312046 0.00283148 -1.72321e-006 2.22123e-006 1.86066e-006 6.26506e-007 5.12878e-006 2.26213e-006 -6.26506e-007 -5.12878e-006 -2.26213e-006 6.26506e-007 5.12878e-006 2.26213e-006 0.672889 -4.4716 12.207 -90.1733 -23.6604 -25.5843 24.4242 -32.9182 -11.9448 31.2789 -12.6835 -7.16294 -3.62911e-007 3.64621e-006 -2.31852e-006 3.62912e-007 -3.64621e-006 2.31852e-006 -3.18055e-015 -3.18055e-015 -6.36111e-015 -3.62911e-007 3.64621e-006 -2.31852e-006 0.0129795 0.0023176 -8.74148e-005 4.77083e-015 3.18055e-015 3.18055e-015 -3.62911e-007 3.64621e-006 -2.31852e-006 0.0163645 0.00303965 -0.000874327 3.54041e-006 6.20314e-006 1.79663e-006 -3.62911e-007 3.64621e-006 -2.31852e-006 0.0146058 0.00367665 -0.00326262 1.19169e-006 -2.39535e-006 -1.17985e-006 -3.62911e-007 3.64621e-006 -2.31852e-006 3.62912e-007 -3.64621e-006 2.31852e-006 -3.18055e-015 -3.18055e-015 -6.36111e-015 -3.95611 -28.2354 -6.8238 -9.96823 81.0896 10.0173 -5.02601 -0.781159 -1.67148 5.83145e-007 1.94454e-006 6.23867e-007 4.03047 -34.8296 7.51916 127.215 87.0301 -127.411 5.05516 -1.25992 1.9384 -2.12753e-007 1.81622e-008 1.5782e-008 
-0.0139042 -2.30104 9.3413 -180 -85.3016 -180 -0.188729 1.77853 -0.406772 -0.365075 3.55835 -0.808256 -0.365076 3.55835 -0.808258 -4.3172e-006 6.2884 -1.06072e-005 1.35408e-006 22.1944 -5.04953e-007 -2.80675 -7.4177 -21.1245 90.9114 -39.6127 32.9632 -41.316 -52.218 15.2774 -48.665 -20.4937 13.06 -1.19271e-015 0 -3.18055e-015 -1.98785e-016 1.59028e-015 -0 -9.93923e-016 0 -0 -1.19271e-015 0 -3.18055e-015 -0.0128465 0.00232877 8.39934e-005 -9.93923e-016 -6.36111e-015 -1.59028e-015 -1.19271e-015 0 -3.18055e-015 -0.0160273 0.00299223 0.000855104 7.95139e-016 0 -3.18055e-015 -1.19271e-015 0 -3.18055e-015 -0.0126298 0.00313466 0.00283707 3.97569e-016 0 3.18055e-015 -1.19271e-015 0 -3.18055e-015 -1.98785e-016 1.59028e-015 -0 -9.93923e-016 0 -0 1.92516 -7.2484 15.3083 -90.5935 -43.501 -33.4571 42.151 -51.7218 -14.8544 49.3139 -20.3093 -12.1692 -3.97569e-016 -7.95139e-016 -1.59028e-015 -8.47955e-008 -1.25836e-006 -8.36593e-007 -1.78906e-015 7.95139e-016 -3.18055e-015 -3.97569e-016 -7.95139e-016 -1.59028e-015 0.0130169 0.00232533 -9.23704e-005 -2.54184e-007 1.7809e-006 -2.50979e-006 -3.97569e-016 -7.95139e-016 -1.59028e-015 0.0163356 0.00303334 -0.000873935 2.5842e-015 -2.54444e-014 -1.59028e-015 -3.97569e-016 -7.95139e-016 -1.59028e-015 0.0145427 0.00367082 -0.00325564 -1.59028e-015 2.38542e-015 1.59028e-015 -3.97569e-016 -7.95139e-016 -1.59028e-015 -8.47955e-008 -1.25836e-006 -8.36593e-007 -1.78906e-015 7.95139e-016 -3.18055e-015 -11.2784 -42.621 -14.1931 -174.043 52.8452 171.854 -5.88717 -1.27845 -3.46242 4.1745e-007 7.02212e-008 -8.72428e-008 13.2702 -50.9211 18.5236 174.514 36.0007 -170.742 6.21966 -3.94275 4.64515 -3.97569e-016 7.95139e-016 -0 
-0.00975754 0.677879 9.56192 -180 -89.5737 -180 -0.180652 1.76861 -0.38901 -0.349528 3.53836 -0.772988 -0.349528 3.53838 -0.772988 -3.8772e-006 5.55218 -1.0359e-005 1.52958e-007 20.4901 1.09347e-006 -2.54672 -7.39622 -20.8442 90.9252 -37.1808 32.071 -38.7337 -49.8091 15.3324 -46.5253 -19.5117 12.3734 -2.28602e-015 -7.95139e-016 -0 -2.28602e-015 0 7.95139e-016 -2.38542e-015 0 7.95139e-016 -2.28602e-015 -7.95139e-016 -0 -0.0128109 0.00232469 8.56453e-005 1.22253e-014 7.95139e-016 -0 -2.28602e-015 -7.95139e-016 -0 -0.0160688 0.00299926 0.000858064 1.39149e-015 -7.95139e-016 -7.95139e-016 -2.28602e-015 -7.95139e-016 -0 -0.0125699 0.00312227 0.00282489 -1.68967e-015 -7.95139e-016 -0 -2.28602e-015 -7.95139e-016 -0 -2.28602e-015 0 7.95139e-016 -2.38542e-015 0 7.95139e-016 1.66581 -7.22548 15.053 -90.6073 -41.0697 -32.5605 39.5025 -49.3526 -14.9635 47.1279 -19.3519 -11.5243 -1.49089e-016 3.97569e-016 -0 -3.42904e-015 0 -7.95139e-016 -4.47266e-016 3.97569e-016 -7.95139e-016 -1.49089e-016 3.97569e-016 -0 0.0129809 0.0023237 -8.50016e-005 2.38542e-015 -3.97569e-016 -0 -1.49089e-016 3.97569e-016 -0 0.0162976 0.00302954 -0.000872971 -5.96354e-016 7.95139e-016 -0 -1.49089e-016 3.97569e-016 -0 0.0145671 0.00367648 -0.00325843 -5.52883e-008 6.51611e-007 -1.69303e-006 -1.49089e-016 3.97569e-016 -0 -3.42904e-015 0 -7.95139e-016 -4.47266e-016 3.97569e-016 -7.95139e-016 -10.2247 -41.1308 -12.9716 -173.425 58.4498 171.703 -5.76813 -0.969872 -3.14921 -2.09177e-007 2.50497e-006 4.19208e-008 11.8393 -49.668 16.4351 174.009 42.3676 -171.177 5.98524 -2.96151 4.08551 2.26239e-007 8.23775e-007 -8.73357e-007 
